<?xml version="1.0" encoding="iso-8859-1"?>
<!-- Generator: Adobe Illustrator 19.0.0, SVG Export Plug-In . SVG Version: 6.00 Build 0)  -->
<svg version="1.1" id="Capa_1" xmlns="http://www.w3.org/2000/svg" xmlns:xlink="http://www.w3.org/1999/xlink" x="0px" y="0px"
	 viewBox="0 0 464 464" style="enable-background:new 0 0 464 464;" xml:space="preserve">
<g>
	<g>
		<g>
			<path d="M232,40c-15.464,0-28,12.536-28,28s12.536,28,28,28s28-12.536,28-28S247.464,40,232,40z M232,80c-6.616,0-12-5.384-12-12
				c0-6.616,5.384-12,12-12c6.616,0,12,5.384,12,12C244,74.616,238.616,80,232,80z"/>
			<path d="M456,392c-0.312-0.288-23.208-20.896-44.424-40H424v-64h-32V128h32V96L232,0L40,96v32h32c0,56.728,0,105.016,0,174.36
				L8,359.936l80,72.032v-48h304c0-16.344,0-17.816,0-28.328L431.944,392l-39.936,36.352v-28.376H212.864l-12.856,16h176V464
				L456,392z M56,112v-6.112l176-88l176,88V112C368.56,112,94.08,112,56,112z M376,128v160h-32V128H376z M328,128v160h-64V128H328z
				 M248,128v160h-32V128H248z M200,128v160h-64V128H200z M120,128v160H88V128H120z M376,367.992H72V368c0,1.752,0,17.792,0,28.296
				l-39.936-36.352L72,323.616c0,11.64,0,4.072,0,28.344c22.048,0.04-18.768,0.032,304,0.032V367.992z M408,336h-14.2
				c-10.232-9.208-17.64-15.88-17.8-16.032V336c-59.506,0-94.924,0-115.021,0c-17.787,0-23.572,0-23.427,0
				c-23.714,0-68.762,0-149.552,0v-32c12.715,0,15.661,0,16.233,0c0.09,0,0.123,0,0.124,0c1.809,0,27.063,0,303.644,0V336z"/>
		</g>
	</g>
</g>
<g>
</g>
<g>
</g>
<g>
</g>
<g>
</g>
<g>
</g>
<g>
</g>
<g>
</g>
<g>
</g>
<g>
</g>
<g>
</g>
<g>
</g>
<g>
</g>
<g>
</g>
<g>
</g>
<g>
</g>
</svg>
