<svg height="419pt" viewBox="-3 0 419 419.293" width="419pt" xmlns="http://www.w3.org/2000/svg"><path d="m167.070312 263.464844c1.890626.003906 3.699219.769531 5.015626 2.125 1.316406 1.351562 2.027343 3.183594 1.976562 5.070312l-2.761719 99.613282c.59375 24.121093 18.660157 44.21875 42.582031 47.371093.066407.007813.132813.019531.199219.027344l10.421875 1.621094 6.824219-89.347657c1.125-14.585937 6.15625-28.601562 14.574219-40.566406 5.414062-7.796875 12.203125-14.546875 20.027344-19.917968 2.6875-1.824219 5.703124-3.753907 8.792968-5.800782 19.433594-12.839844 46.050782-30.359375 54.050782-48.277344v-190.402343c-87-.082031-206.09375-.167969-266.101563-.027344-14.625.035156-26.898437 10.960937-26.898437 24.359375v.699219c0 13.429687 12.3125 23.988281 26.972656 23.988281h20.125c3.867187 0 7 3.132812 7 7s-3.132813 7-7 7h-37.160156c-14.664063 0-26.589844 11.03125-26.589844 24.464844 0 13.5 11.925781 24.535156 26.589844 24.535156h39.386718c3.867188 0 7 3.132812 7 7s-3.132812 7-7 7h-50.199218c-14.660157 0-26.125 11.085938-26.125 24.515625v.738281c0 13.09375 10.867187 23.746094 25.019531 24.746094h56.539062c3.867188 0 7 3.132812 7 7s-3.132812 7-7 7h-54.898437c-.222656-.015625-.441406-.042969-.65625-.082031v-.101563c-.402344.097656-.808594.160156-1.21875.1875h-6.820313c-14.664062 0-26.589843 10.722656-26.589843 24.152344 0 13.433594 11.917968 24.152344 26.570312 24.164062zm0 0"/><path d="m342.773438 0h71v263h-71zm0 0"/></svg>