<svg height="512pt" viewBox="0 0 512 512.00015" width="512pt" xmlns="http://www.w3.org/2000/svg"><path d="m55.171875 105.929688s-8.828125 38.84375 8.828125 26.484374c17.65625-12.359374 35.308594-21.1875 52.964844-8.828124 17.65625 12.359374 52.964844 17.65625 52.964844 17.65625s-17.652344 26.480468 8.828124 26.480468c26.484376 0 26.484376-26.480468 61.792969-26.480468 35.3125 0 61.792969-35.3125 61.792969-35.3125s-26.480469-44.136719-61.792969-44.136719c-35.308593 0-35.308593-35.308594-61.792969-35.308594-26.480468 0-8.828124 26.480469-8.828124 26.480469-18.980469 7.074218-36.824219 16.890625-52.964844 29.132812-17.65625 15.886719-35.308594 4.414063-52.964844-11.476562s-8.828125 35.308594-8.828125 35.308594zm0 0" fill="#4482c3"/><path d="m264.828125 229.515625s-8.828125 38.84375 8.828125 26.484375c17.652344-12.359375 35.308594-21.1875 52.964844-8.828125s52.964844 17.65625 52.964844 17.65625-17.65625 26.480469 8.828124 26.480469c26.484376 0 26.484376-26.480469 61.792969-26.480469 35.308594 0 61.792969-35.3125 61.792969-35.3125s-26.484375-44.136719-61.792969-44.136719c-35.308593 0-35.308593-35.308594-61.792969-35.308594-26.484374 0-8.828124 26.480469-8.828124 26.480469-18.980469 7.074219-36.824219 16.890625-52.964844 29.132813-17.65625 15.890625-35.3125 4.414062-52.964844-11.476563-17.65625-15.890625-8.828125 35.308594-8.828125 35.308594zm0 0" fill="#e57e25"/><path d="m214.070312 397.242188s-8.828124 38.839843 8.828126 26.480468c17.652343-12.355468 35.308593-21.183594 52.964843-8.824218 17.652344 12.355468 52.964844 17.652343 52.964844 17.652343s-17.65625 26.484375 8.828125 26.484375c26.480469 0 26.480469-26.484375 61.792969-26.484375 35.308593 0 61.792969-35.308593 61.792969-35.308593s-26.484376-44.140626-61.792969-44.140626c-35.3125 0-35.3125-35.308593-61.792969-35.308593-26.484375 0-8.828125 26.484375-8.828125 26.484375-18.980469 7.074218-36.828125 16.886718-52.964844 29.128906-17.65625 15.890625-35.3125 4.414062-52.964843-11.476562-17.65625-15.886719-8.828126 35.3125-8.828126 35.3125zm0 0" fill="#4482c3"/><path d="m2.207031 291.308594s-8.828125 38.84375 8.828125 26.484375 35.308594-21.1875 52.964844-8.828125 52.964844 17.65625 52.964844 17.65625-17.65625 26.480468 8.828125 26.480468 26.484375-26.480468 61.792969-26.480468c35.3125 0 59.585937-35.3125 59.585937-35.3125s-24.273437-44.136719-59.585937-44.136719c-35.308594 0-35.308594-35.308594-61.792969-35.308594s-8.828125 26.480469-8.828125 26.480469c-18.980469 7.074219-36.824219 16.890625-52.964844 29.132812-17.65625 15.890626-35.308594 4.414063-52.964844-11.476562s-8.828125 35.308594-8.828125 35.308594zm0 0" fill="#e57e25"/><path d="m459.035156 26.484375c0 14.625-11.855468 26.480469-26.484375 26.480469-14.625 0-26.480469-11.855469-26.480469-26.480469 0-14.628906 11.855469-26.484375 26.480469-26.484375 14.628907 0 26.484375 11.855469 26.484375 26.484375zm0 0" fill="#67b9cc"/><path d="m379.585938 70.621094c0 9.75-7.902344 17.65625-17.65625 17.65625-9.75 0-17.652344-7.90625-17.652344-17.65625s7.902344-17.65625 17.652344-17.65625c9.753906 0 17.65625 7.90625 17.65625 17.65625zm0 0" fill="#41767f"/><path d="m406.070312 114.757812c-3.585937.023438-6.832031-2.128906-8.207031-5.441406s-.609375-7.128906 1.9375-9.652344c2.113281-2.023437 5.066407-2.910156 7.945313-2.382812.585937.082031 1.15625.261719 1.6875.527344.539062.179687 1.046875.449218 1.5.796875.472656.308593.914062.664062 1.324218 1.058593 1.671876 1.65625 2.609376 3.914063 2.609376 6.265626 0 2.355468-.9375 4.613281-2.609376 6.269531-.410156.394531-.851562.746093-1.324218 1.058593-.453125.347657-.960938.617188-1.5.792969-.53125.269531-1.101563.449219-1.6875.53125-.554688.101563-1.113282.164063-1.675782.175781zm0 0" fill="#67b9cc"/><path d="m133.515625 423.722656c0 14.628906-11.855469 26.484375-26.480469 26.484375s-26.484375-11.855469-26.484375-26.484375c0-14.625 11.859375-26.480468 26.484375-26.480468s26.480469 11.855468 26.480469 26.480468zm0 0" fill="#41767f"/><path d="m54.070312 467.863281c0 9.75-7.90625 17.652344-17.65625 17.652344s-17.65625-7.902344-17.65625-17.652344 7.90625-17.65625 17.65625-17.65625 17.65625 7.90625 17.65625 17.65625zm0 0" fill="#67b9cc"/><path d="m80.550781 512c-3.585937.019531-6.828125-2.128906-8.203125-5.441406s-.609375-7.128906 1.9375-9.652344c2.113282-2.023438 5.066406-2.910156 7.945313-2.386719.585937.085938 1.15625.261719 1.683593.53125.542969.179688 1.050782.445313 1.5.792969.476563.3125.917969.667969 1.324219 1.0625 1.671875 1.65625 2.613281 3.914062 2.613281 6.265625 0 2.355469-.941406 4.609375-2.613281 6.269531-.40625.390625-.847656.746094-1.324219 1.058594-.449218.347656-.957031.617188-1.5.792969-.527343.269531-1.097656.449219-1.683593.53125-.554688.101562-1.117188.160156-1.679688.175781zm0 0" fill="#67b9cc"/><path d="m211.863281 282.484375c0 9.75-7.90625 17.652344-17.65625 17.652344s-17.65625-7.902344-17.65625-17.652344c0-9.753906 7.90625-17.65625 17.65625-17.65625s17.65625 7.902344 17.65625 17.65625zm0 0" fill="#fff"/><path d="m203.035156 282.484375c0 4.875-3.953125 8.824219-8.828125 8.824219s-8.828125-3.949219-8.828125-8.824219c0-4.878906 3.953125-8.828125 8.828125-8.828125s8.828125 3.949219 8.828125 8.828125zm0 0" fill="#2c2f38"/><path d="m476.691406 220.691406c0 9.75-7.90625 17.652344-17.65625 17.652344s-17.65625-7.902344-17.65625-17.652344c0-9.753906 7.90625-17.65625 17.65625-17.65625s17.65625 7.902344 17.65625 17.65625zm0 0" fill="#fff"/><path d="m467.863281 220.691406c0 4.875-3.953125 8.824219-8.828125 8.824219s-8.828125-3.949219-8.828125-8.824219c0-4.878906 3.953125-8.828125 8.828125-8.828125s8.828125 3.949219 8.828125 8.828125zm0 0" fill="#2c2f38"/><path d="m423.722656 388.414062c0 9.75-7.902344 17.65625-17.652344 17.65625-9.753906 0-17.65625-7.90625-17.65625-17.65625s7.902344-17.65625 17.65625-17.65625c9.75 0 17.652344 7.90625 17.652344 17.65625zm0 0" fill="#fff"/><path d="m414.898438 388.414062c0 4.875-3.953126 8.828126-8.828126 8.828126s-8.828124-3.953126-8.828124-8.828126 3.953124-8.828124 8.828124-8.828124 8.828126 3.953124 8.828126 8.828124zm0 0" fill="#2c2f38"/><path d="m264.828125 97.101562c0 9.753907-7.90625 17.65625-17.65625 17.65625s-17.65625-7.902343-17.65625-17.65625c0-9.75 7.90625-17.652343 17.65625-17.652343s17.65625 7.902343 17.65625 17.652343zm0 0" fill="#fff"/><path d="m256 97.101562c0 4.878907-3.953125 8.828126-8.828125 8.828126s-8.828125-3.949219-8.828125-8.828126c0-4.875 3.953125-8.824218 8.828125-8.824218s8.828125 3.949218 8.828125 8.824218zm0 0" fill="#2c2f38"/><g fill="#fff"><path d="m247.171875 88.277344c-.019531 4.144531-2.921875 7.71875-6.972656 8.589844-4.054688.871093-8.167969-1.199219-9.886719-4.972657 1.753906-5.550781 6.101562-9.898437 11.652344-11.652343 3.164062 1.421874 5.199218 4.566406 5.207031 8.035156zm0 0"/><path d="m194.207031 273.65625c-.019531 4.144531-2.921875 7.71875-6.976562 8.589844-4.050781.871094-8.164063-1.199219-9.882813-4.972656 1.753906-5.550782 6.101563-9.898438 11.652344-11.652344 3.164062 1.421875 5.199219 4.566406 5.207031 8.035156zm0 0"/><path d="m459.035156 211.863281c-.019531 4.144531-2.921875 7.71875-6.976562 8.589844-4.050782.871094-8.164063-1.199219-9.882813-4.972656 1.753907-5.550781 6.101563-9.898438 11.652344-11.652344 3.160156 1.421875 5.199219 4.566406 5.207031 8.035156zm0 0"/><path d="m406.070312 379.585938c-.019531 4.144531-2.921874 7.71875-6.976562 8.589843-4.054688.871094-8.167969-1.195312-9.886719-4.96875 1.753907-5.550781 6.101563-9.898437 11.652344-11.652343 3.164063 1.421874 5.203125 4.5625 5.210937 8.03125zm0 0"/></g></svg>