<svg height="511pt" viewBox="0 -4 511.91527 511" width="511pt" xmlns="http://www.w3.org/2000/svg"><path d="m61.925781 111.390625s-8.53125 37.546875 8.535157 25.601563c17.066406-11.949219 34.132812-20.480469 51.199218-8.535157 17.066406 11.949219 51.199219 17.066407 51.199219 17.066407s-17.066406 25.601562 8.535156 25.601562c25.597657 0 25.597657-25.601562 59.730469-25.601562 34.136719 0 59.734375-34.132813 59.734375-34.132813s-25.597656-42.667969-59.734375-42.667969c-34.132812 0-34.132812-34.132812-59.730469-34.132812-25.601562 0-8.535156 25.601562-8.535156 25.601562-18.347656 6.839844-35.597656 16.324219-51.199219 28.160156-17.066406 15.359376-34.132812 4.265626-51.199218-11.09375-17.066407-15.359374-8.535157 34.132813-8.535157 34.132813zm0 0" fill="#dfe3ee"/><path d="m503.527344 230.859375s-25.601563 34.132813-59.734375 34.132813c-34.132813 0-34.132813 25.597656-59.734375 25.597656-4.125.417968-8.25-.777344-11.519532-3.328125 13.226563-6.910157 19.199219-22.269531 45.65625-22.269531 34.132813 0 59.730469-34.132813 59.730469-34.132813s-25.597656-42.667969-59.730469-42.667969c-26.796874 0-32.597656-21.078125-46.253906-30.125 3.238282-3.078125 7.683594-4.546875 12.117188-4.007812 25.601562 0 25.601562 34.132812 59.734375 34.132812 34.132812 0 59.734375 42.667969 59.734375 42.667969zm0 0" fill="#7fa8f6"/><path d="m454.460938 392.992188s-25.601563 34.132812-59.734376 34.132812c-34.132812 0-34.132812 25.597656-59.734374 25.597656-4.125.417969-8.25-.773437-11.519532-3.328125 13.226563-6.910156 19.199219-22.269531 45.652344-22.269531 34.136719 0 59.734375-34.132812 59.734375-34.132812s-25.597656-42.667969-59.734375-42.667969c-26.792969 0-32.59375-21.078125-46.25-30.121094 3.238281-3.082031 7.683594-4.550781 12.117188-4.011719 25.601562 0 25.601562 34.132813 59.734374 34.132813 34.132813 0 59.734376 42.667969 59.734376 42.667969zm0 0" fill="#7fa8f6"/><path d="m477.925781 230.859375s-25.597656 34.132813-59.730469 34.132813c-26.457031 0-32.429687 15.359374-45.65625 22.269531-7.253906-6.910157 2.988282-22.269531 2.988282-22.269531s-34.132813-5.121094-51.199219-17.066407c-8.953125-6.464843-20.691406-7.605469-30.722656-2.988281-7.273438 2.980469-14.152344 6.851562-20.480469 11.519531-8.789062 6.144531-10.835938-.851562-10.664062-9.128906.25-5.539063.960937-11.050781 2.132812-16.46875-1.222656-7.398437-1.933594-14.867187-2.132812-22.359375-.085938-10.667969 1.960937-19.542969 10.664062-11.777344 6.117188 5.847656 12.976562 10.871094 20.398438 14.933594 9.941406 5.898438 22.613281 4.320312 30.804687-3.839844 15.601563-11.832031 32.851563-21.320312 51.199219-28.160156 0 0-9.558594-14.421875-3.585938-21.589844 13.65625 9.046875 19.457032 30.125 46.253906 30.125 34.132813 0 59.730469 42.667969 59.730469 42.667969zm0 0" fill="#dfe3ee"/><path d="m428.859375 392.992188s-25.597656 34.132812-59.734375 34.132812c-26.453125 0-32.425781 15.359375-45.652344 22.269531-7.253906-6.910156 2.988282-22.269531 2.988282-22.269531s-34.132813-5.121094-51.199219-17.066406c-8.953125-6.464844-20.691407-7.605469-30.722657-2.988282-7.273437 2.980469-14.152343 6.851563-20.480468 11.519532-8.789063 6.144531-10.75-.765625-10.664063-9.042969.203125-5.574219.917969-11.113281 2.132813-16.554687-1.222656-7.394532-1.933594-14.867188-2.132813-22.359376-.085937-10.664062 1.960938-19.539062 10.664063-11.773437 6.117187 5.84375 12.976562 10.867187 20.394531 14.929687 9.945313 5.898438 22.617187 4.320313 30.808594-3.839843 15.601562-11.832031 32.847656-21.320313 51.199219-28.160157 0 0-9.644532-14.417968-3.585938-21.585937 13.65625 9.042969 19.457031 30.121094 46.25 30.121094 34.136719 0 59.734375 42.667969 59.734375 42.667969zm0 0" fill="#dfe3ee"/><path d="m10.726562 290.589844s-8.53125 37.546875 8.535157 25.601562c17.066406-11.945312 34.132812-20.480468 51.199219-8.535156 17.066406 11.949219 51.199218 17.066406 51.199218 17.066406s-17.066406 25.601563 8.535156 25.601563c25.597657 0 25.597657-25.601563 59.730469-25.601563 34.132813 0 57.601563-34.132812 57.601563-34.132812s-23.46875-42.664063-57.601563-42.664063c-34.132812 0-34.132812-34.136719-59.730469-34.136719-25.601562 0-8.535156 25.601563-8.535156 25.601563-18.347656 6.839844-35.597656 16.328125-51.199218 28.160156-17.066407 15.359375-34.132813 4.265625-51.199219-11.09375-17.066407-15.359375-8.535157 34.132813-8.535157 34.132813zm0 0" fill="#dfe3ee"/><path d="m452.328125 34.589844c0 14.140625-11.460937 25.601562-25.601563 25.601562-14.136718 0-25.601562-11.460937-25.601562-25.601562 0-14.136719 11.464844-25.597656 25.601562-25.597656 14.140626 0 25.601563 11.460937 25.601563 25.597656zm0 0" fill="#dfe3ee"/><path d="m375.527344 77.257812c0 9.425782-7.640625 17.066407-17.066406 17.066407-9.425782 0-17.066407-7.640625-17.066407-17.066407 0-9.425781 7.640625-17.066406 17.066407-17.066406 9.425781 0 17.066406 7.640625 17.066406 17.066406zm0 0" fill="#dfe3ee"/><path d="m137.660156 418.589844c0 14.140625-11.460937 25.601562-25.601562 25.601562-14.136719 0-25.597656-11.460937-25.597656-25.601562 0-14.136719 11.460937-25.597656 25.597656-25.597656 14.140625 0 25.601562 11.460937 25.601562 25.597656zm0 0" fill="#dfe3ee"/><path d="m60.859375 461.257812c0 9.425782-7.640625 17.066407-17.066406 17.066407s-17.066407-7.640625-17.066407-17.066407c0-9.425781 7.640626-17.066406 17.066407-17.066406s17.066406 7.640625 17.066406 17.066406zm0 0" fill="#dfe3ee"/><path d="m213.394531 282.058594c0 9.425781-7.640625 17.066406-17.066406 17.066406s-17.066406-7.640625-17.066406-17.066406c0-9.425782 7.640625-17.066406 17.066406-17.066406s17.066406 7.640624 17.066406 17.066406zm0 0" fill="#fff"/><path d="m469.394531 222.324219c0 9.425781-7.640625 17.066406-17.066406 17.066406s-17.066406-7.640625-17.066406-17.066406 7.640625-17.066407 17.066406-17.066407 17.066406 7.640626 17.066406 17.066407zm0 0" fill="#fff"/><path d="m418.195312 384.457031c0 9.425781-7.644531 17.066407-17.070312 17.066407-9.421875 0-17.066406-7.640626-17.066406-17.066407s7.644531-17.066406 17.066406-17.066406c9.425781 0 17.070312 7.640625 17.070312 17.066406zm0 0" fill="#fff"/><path d="m264.59375 102.859375c0 9.425781-7.640625 17.066406-17.066406 17.066406-9.425782 0-17.066406-7.640625-17.066406-17.066406s7.640624-17.070313 17.066406-17.070313c9.425781 0 17.066406 7.644532 17.066406 17.070313zm0 0" fill="#fff"/><path d="m247.527344 94.324219c-.019532 4.007812-2.824219 7.464843-6.742188 8.304687-3.917968.839844-7.894531-1.160156-9.558594-4.804687 1.699219-5.367188 5.898438-9.570313 11.265626-11.265625 3.058593 1.375 5.027343 4.414062 5.035156 7.765625zm0 0" fill="#fff"/><path d="m196.328125 273.523438c-.019531 4.007812-2.824219 7.464843-6.742187 8.304687-3.921876.839844-7.894532-1.15625-9.558594-4.804687 1.695312-5.367188 5.898437-9.570313 11.265625-11.265626 3.058593 1.375 5.027343 4.414063 5.035156 7.765626zm0 0" fill="#fff"/><path d="m452.328125 213.789062c-.019531 4.011719-2.824219 7.464844-6.742187 8.304688-3.921876.84375-7.894532-1.15625-9.558594-4.804688 1.695312-5.363281 5.898437-9.566406 11.265625-11.261718 3.058593 1.371094 5.027343 4.410156 5.035156 7.761718zm0 0" fill="#fff"/><path d="m401.125 375.925781c-.015625 4.007813-2.820312 7.460938-6.742188 8.300781-3.917968.84375-7.894531-1.15625-9.554687-4.804687 1.695313-5.363281 5.898437-9.566406 11.265625-11.261719 3.054688 1.375 5.027344 4.410156 5.03125 7.765625zm0 0" fill="#fff"/><path d="m70.460938 136.992188c4.746093-3.390626 9.738281-6.425782 14.933593-9.082032.230469-5.558594.945313-11.085937 2.132813-16.519531-1.226563-7.394531-1.9375-14.863281-2.132813-22.355469-5.28125-3.527344-10.277343-7.464844-14.933593-11.777344-17.066407-15.359374-8.535157 34.132813-8.535157 34.132813s-8.53125 37.546875 8.535157 25.601563zm0 0" fill="#fff"/><path d="m19.261719 316.191406c4.746093-3.390625 9.738281-6.425781 14.933593-9.078125.230469-5.558593.941407-11.085937 2.132813-16.523437-1.226563-7.394532-1.941406-14.863282-2.132813-22.355469-5.28125-3.523437-10.277343-7.460937-14.933593-11.777344-17.066407-15.359375-8.535157 34.132813-8.535157 34.132813s-8.53125 37.546875 8.535157 25.601562zm0 0" fill="#fff"/><g fill="#428dff"><path d="m256.058594 102.859375c0 4.710937-3.820313 8.53125-8.53125 8.53125-4.714844 0-8.535156-3.820313-8.535156-8.53125 0-4.714844 3.820312-8.535156 8.535156-8.535156 4.710937 0 8.53125 3.820312 8.53125 8.535156zm0 0"/><path d="m460.859375 222.324219c0 4.714843-3.820313 8.535156-8.53125 8.535156-4.714844 0-8.535156-3.820313-8.535156-8.535156 0-4.710938 3.820312-8.535157 8.535156-8.535157 4.710937 0 8.53125 3.824219 8.53125 8.535157zm0 0"/><path d="m409.660156 384.457031c0 4.714844-3.820312 8.535157-8.535156 8.535157-4.710938 0-8.53125-3.820313-8.53125-8.535157 0-4.710937 3.820312-8.53125 8.53125-8.53125 4.714844 0 8.535156 3.820313 8.535156 8.53125zm0 0"/><path d="m204.859375 282.058594c0 4.710937-3.820313 8.53125-8.53125 8.53125-4.714844 0-8.535156-3.820313-8.535156-8.53125 0-4.714844 3.820312-8.535156 8.535156-8.535156 4.710937 0 8.53125 3.820312 8.53125 8.535156zm0 0"/><path d="m401.125 119.925781c.542969-.015625 1.082031-.074219 1.613281-.171875.570313-.078125 1.121094-.253906 1.632813-.511718.523437-.171876 1.011718-.433594 1.449218-.769532.457032-.300781.886719-.644531 1.28125-1.023437 1.613282-1.601563 2.523438-3.78125 2.523438-6.058594 0-2.273437-.910156-4.457031-2.523438-6.058594-.394531-.378906-.824218-.722656-1.28125-1.023437-.4375-.335938-.925781-.597656-1.449218-.769532-.511719-.257812-1.0625-.429687-1.632813-.511718-2.78125-.503906-5.636719.351562-7.679687 2.304687-2.460938 2.441407-3.199219 6.132813-1.871094 9.335938 1.332031 3.203125 4.472656 5.28125 7.9375 5.257812zm0 0"/><path d="m80.402344 501.449219c1.632812 1.558593 3.796875 2.445312 6.058594 2.476562.539062-.015625 1.078124-.074219 1.613281-.171875.566406-.078125 1.117187-.253906 1.628906-.511718.523437-.171876 1.015625-.433594 1.449219-.769532.457031-.300781.886718-.644531 1.28125-1.023437 1.617187-1.601563 2.523437-3.78125 2.523437-6.058594 0-2.273437-.90625-4.457031-2.523437-6.058594-.394532-.378906-.824219-.722656-1.28125-1.023437-.433594-.335938-.925782-.597656-1.449219-.769532-.511719-.257812-1.0625-.429687-1.628906-.511718-2.78125-.503906-5.636719.351562-7.679688 2.304687-3.300781 3.367188-3.300781 8.753907 0 12.117188zm0 0"/><path d="m57.949219 145.8125c5.558593 3.351562 12.664062 2.601562 17.402343-1.832031 19.53125-13.652344 30.71875-16 41.417969-8.535157 13.453125 8.003907 28.214844 13.554688 43.605469 16.394532-2.308594 5.804687-2.136719 12.300781.46875 17.980468 4.328125 7.027344 12.363281 10.875 20.550781 9.835938 11.621094-.195312 22.671875-5.066406 30.660157-13.507812 7.511718-8.003907 18.097656-12.40625 29.070312-12.089844 37.964844 0 65.410156-36.011719 66.5625-37.546875v-.050781c.597656-.835938 1.042969-1.769532 1.3125-2.757813.070312-.253906.09375-.511719.144531-.777344.296875-2.007812-.046875-4.054687-.972656-5.859375v-.070312c-1.140625-1.902344-28.515625-46.804688-67.046875-46.804688-14.394531 0-20.792969-7.390625-28.210938-15.957031-7.414062-8.566406-15.734374-18.175781-31.519531-18.175781-8.1875-1.039063-16.222656 2.808594-20.550781 9.839844-2.792969 6.347656-2.71875 13.589843.207031 19.878906-16.226562 6.511718-31.417969 15.347656-45.097656 26.234375-10.242187 9.222656-20.285156 6.449219-39.785156-11.09375-4.097657-5.007813-11.097657-6.539063-16.910157-3.703125-3.03125 1.707031-12.109374 6.765625-5.976562 43.960937-2.78125 12.945313-3.992188 28.808594 4.667969 34.636719zm69.417969-51.121094c14.808593-11.109375 31.136718-20.039062 48.480468-26.511718 2.4375-.917969 4.320313-2.894532 5.121094-5.375.796875-2.476563.417969-5.183594-1.027344-7.351563-2.40625-3.328125-3.855468-7.257813-4.179687-11.355469 1.742187-.871094 3.699219-1.210937 5.632812-.972656 7.628907 0 11.628907 4.214844 18.628907 12.277344 9.28125 13.59375 24.644531 21.761718 41.101562 21.855468 22.488281 0 41.585938 23.132813 49.042969 33.535157-7.808594 8.535156-26.648438 26.199219-49.042969 26.199219-15.078125-.339844-29.632812 5.539062-40.25 16.253906-4.90625 5.695312-11.96875 9.082031-19.480469 9.34375-1.871093.125-3.742187-.148438-5.496093-.808594.171874-4.160156 1.589843-8.175781 4.070312-11.519531 1.621094-2.433594 1.886719-5.523438.703125-8.195313-1.183594-2.667968-3.652344-4.550781-6.539063-4.980468-16.667968-2.3125-32.78125-7.601563-47.574218-15.617188-22.648438-15.847656-45.566406-2.089844-58.230469 6.621094.1875-4.984375.835937-9.945313 1.9375-14.8125.074219-.667969.074219-1.339844 0-2.003906.035156-.441407.035156-.882813 0-1.324219v-.050781c-1.3125-7.628907-1.960937-15.359376-1.9375-23.101563 12.628906 10.941406 36.289063 28.367187 59.039063 7.894531zm0 0"/><path d="m278.835938 190.382812c-4.097657-5.003906-11.097657-6.535156-16.914063-3.703124-3.027344 1.707031-12.109375 6.769531-5.972656 43.964843-2.757813 12.945313-3.96875 28.808594 4.695312 34.636719 5.554688 3.347656 12.660157 2.597656 17.398438-1.835938 19.53125-13.652343 30.71875-16 41.417969-8.53125 13.453124 8 28.214843 13.550782 43.605468 16.390626-2.304687 5.804687-2.136718 12.304687.472656 17.980468 4.320313 7.019532 12.34375 10.867188 20.519532 9.839844 11.621094-.199219 22.671875-5.066406 30.660156-13.507812 7.515625-8.007813 18.101562-12.410157 29.074219-12.09375 37.964843 0 65.410156-36.011719 66.5625-37.546876v-.050781c.597656-.832031 1.042969-1.765625 1.3125-2.753906.066406-.257813.09375-.515625.144531-.777344.292969-2.007812-.046875-4.058593-.972656-5.863281v-.066406c-1.144532-1.90625-28.519532-46.808594-67.046875-46.808594-14.394531 0-20.796875-7.386719-28.210938-15.957031-7.414062-8.566407-15.734375-18.175781-31.523437-18.175781-8.183594-1.035157-16.222656 2.8125-20.546875 9.839843-2.792969 6.347657-2.71875 13.59375.203125 19.882813-16.222656 6.511718-31.414063 15.347656-45.097656 26.230468-10.238282 9.234376-20.292969 6.453126-39.78125-11.09375zm51.199218 23.773438c14.8125-11.109375 31.144532-20.039062 48.496094-26.511719 2.4375-.914062 4.320312-2.894531 5.121094-5.371093.796875-2.480469.417968-5.1875-1.027344-7.351563-2.40625-3.332031-3.855469-7.261719-4.179688-11.359375 1.734376-.867188 3.6875-1.207031 5.613282-.972656 7.628906 0 11.632812 4.214844 18.628906 12.28125 9.285156 13.589844 24.648438 21.757812 41.105469 21.851562 22.484375 0 41.582031 23.136719 49.042969 33.539063-7.808594 8.53125-26.652344 26.195312-49.042969 26.195312-15.078125-.339843-29.636719 5.539063-40.25 16.257813-4.90625 5.695312-11.96875 9.082031-19.484375 9.34375-1.867188.125-3.742188-.152344-5.492188-.8125.171875-4.160156 1.589844-8.171875 4.070313-11.519532 1.621093-2.429687 1.886719-5.519531.703125-8.191406s-3.652344-4.550781-6.542969-4.984375c-16.664063-2.3125-32.777344-7.601562-47.570313-15.617187-22.640624-15.84375-45.5625-2.089844-58.234374 6.625.1875-4.988282.835937-9.949219 1.9375-14.816406.09375-.664063.105468-1.335938.042968-2.003907.039063-.441406.039063-.882812 0-1.324219v-.050781c-1.324218-7.625-1.988281-15.351562-1.980468-23.089843 12.621093 10.929687 36.269531 28.347656 59.042968 7.882812zm0 0"/><path d="m229.769531 352.515625c-4.097656-5-11.097656-6.535156-16.914062-3.703125-3.027344 1.707031-12.109375 6.769531-5.972657 43.964844-2.757812 12.945312-3.96875 28.808594 4.691407 34.636718 5.558593 3.347657 12.664062 2.597657 17.402343-1.835937 19.523438-13.652344 30.71875-16 41.417969-8.53125 13.453125 8 28.214844 13.550781 43.605469 16.390625-2.304688 5.808594-2.136719 12.304688.472656 17.980469 4.320313 7.019531 12.34375 10.867187 20.519532 9.839843 11.621093-.199218 22.671874-5.066406 30.660156-13.507812 7.515625-8.007812 18.097656-12.410156 29.074218-12.09375 37.964844 0 65.410157-36.007812 66.558594-37.546875v-.050781c.601563-.832032 1.046875-1.765625 1.316406-2.753906.066407-.257813.09375-.511719.144532-.777344.292968-2.007813-.046875-4.058594-.972656-5.863282v-.066406c-1.144532-1.902344-28.519532-46.808594-67.046876-46.808594-14.394531 0-20.796874-7.386718-28.210937-15.957031-7.414063-8.566406-15.734375-18.175781-31.523437-18.175781-8.183594-1.035156-16.222657 2.8125-20.546876 9.839844-2.792968 6.347656-2.71875 13.59375.203126 19.882812-16.222657 6.511719-31.414063 15.347656-45.097657 26.230469-10.238281 9.234375-20.316406 6.453125-39.78125-11.09375zm99.675781-2.738281c2.4375-.914063 4.324219-2.894532 5.121094-5.371094.796875-2.480469.421875-5.1875-1.023437-7.351562-2.410157-3.332032-3.855469-7.257813-4.179688-11.359376 1.738281-.871093 3.699219-1.207031 5.628907-.972656 7.628906 0 11.632812 4.21875 18.628906 12.28125 9.285156 13.589844 24.648437 21.757813 41.105468 21.855469 22.484376 0 41.582032 23.132813 49.042969 33.535156-7.808593 8.53125-26.652343 26.195313-49.042969 26.195313-15.078124-.335938-29.636718 5.539062-40.25 16.257812-4.90625 5.695313-11.96875 9.082032-19.484374 9.34375-1.867188.125-3.742188-.152344-5.492188-.8125.171875-4.160156 1.589844-8.171875 4.070312-11.519531 1.621094-2.429687 1.886719-5.519531.703126-8.191406-1.183594-2.671875-3.652344-4.550781-6.542969-4.984375-16.664063-2.3125-32.777344-7.601563-47.570313-15.613282-22.640625-15.855468-45.570312-2.082031-58.234375 6.621094.1875-4.988281.835938-9.945312 1.9375-14.816406.089844-.664062.105469-1.335938.042969-2.003906.039062-.441406.039062-.882813 0-1.320313v-.054687c-1.324219-7.625-1.988281-15.355469-1.980469-23.097656 12.605469 10.972656 36.277344 28.355468 59.027344 7.894531 14.8125-11.113281 31.144531-20.042969 48.492187-26.515625zm0 0"/><path d="m6.75 325.015625c5.558594 3.347656 12.664062 2.597656 17.398438-1.835937 19.527343-13.652344 30.722656-16 41.421874-8.535157 13.449219 8.003907 28.214844 13.554688 43.605469 16.394531-2.308593 5.804688-2.136719 12.300782.46875 17.980469 4.324219 7.027344 12.363281 10.875 20.550781 9.839844 11.617188-.199219 22.667969-5.070313 30.660157-13.511719 7.511719-8.003906 18.097656-12.40625 29.070312-12.089844 38.1875 0 63.566407-36.285156 64.632813-37.835937.402344-.929687.800781-1.859375 1.195312-2.792969.136719-1.078125.191406-2.164062.160156-3.25-.113281-.585937-.292968-1.15625-.527343-1.707031-.097657-.414063-.222657-.824219-.382813-1.21875-1.058594-1.894531-26.34375-47.0625-65.078125-47.0625-14.394531 0-20.792969-7.390625-28.210937-15.957031-7.414063-8.566406-15.734375-18.175782-31.519532-18.175782-8.1875-1.035156-16.226562 2.8125-20.550781 9.839844-2.792969 6.347656-2.71875 13.589844.207031 19.882813-16.226562 6.507812-31.417968 15.347656-45.101562 26.230469-10.238281 9.222656-20.289062 6.449218-39.78125-11.09375-4.09375-5.011719-11.097656-6.546876-16.914062-3.703126-3.027344 1.707032-12.109376 6.765626-5.972657 43.964844-2.78125 12.945313-3.992187 28.808594 4.667969 34.636719zm69.417969-51.125c14.808593-11.109375 31.136719-20.039063 48.480469-26.511719 2.433593-.917968 4.320312-2.894531 5.117187-5.375.800781-2.476562.421875-5.183594-1.023437-7.347656-2.410157-3.332031-3.855469-7.261719-4.179688-11.359375 1.738281-.871094 3.699219-1.210937 5.632812-.972656 7.628907 0 11.628907 4.214843 18.625 12.28125 9.285157 13.589843 24.648438 21.757812 41.105469 21.851562 22.511719 0 40.441407 23.375 47.191407 33.5625-7.082032 8.371094-24.746094 26.171875-47.191407 26.171875-15.078125-.339844-29.636719 5.539063-40.25 16.253906-4.90625 5.695313-11.96875 9.085938-19.480469 9.34375-1.871093.128907-3.746093-.148437-5.496093-.808593.171875-4.160157 1.589843-8.175781 4.070312-11.519531 1.621094-2.429688 1.886719-5.523438.703125-8.191407-1.183594-2.671875-3.652344-4.550781-6.539062-4.984375-16.667969-2.3125-32.78125-7.601562-47.574219-15.617187-22.640625-15.84375-45.570313-2.089844-58.234375 6.621093.1875-4.984374.835938-9.945312 1.9375-14.8125.078125-.664062.078125-1.339843 0-2.003906.039062-.441406.039062-.882812 0-1.324218v-.050782c-1.308594-7.628906-1.957031-15.359375-1.9375-23.101562 12.621094 10.941406 36.285156 28.367187 59.042969 7.894531zm0 0"/><path d="m426.726562 68.722656c18.851563 0 34.132813-15.28125 34.132813-34.132812 0-18.851563-15.28125-34.132813-34.132813-34.132813-18.851562 0-34.132812 15.28125-34.132812 34.132813 0 18.851562 15.28125 34.132812 34.132812 34.132812zm0-51.199218c9.425782 0 17.066407 7.640624 17.066407 17.066406 0 9.425781-7.640625 17.066406-17.066407 17.066406-9.425781 0-17.066406-7.640625-17.066406-17.066406 0-9.425782 7.640625-17.066406 17.066406-17.066406zm0 0"/><path d="m358.460938 102.859375c14.136718 0 25.597656-11.464844 25.597656-25.601563 0-14.136718-11.460938-25.601562-25.597656-25.601562-14.140626 0-25.601563 11.464844-25.601563 25.601562 0 14.136719 11.460937 25.601563 25.601563 25.601563zm0-34.136719c4.710937 0 8.53125 3.820313 8.53125 8.535156 0 4.710938-3.820313 8.53125-8.53125 8.53125-4.714844 0-8.535157-3.820312-8.535157-8.53125 0-4.714843 3.820313-8.535156 8.535157-8.535156zm0 0"/><path d="m112.058594 452.722656c18.851562 0 34.136718-15.28125 34.136718-34.132812 0-18.851563-15.285156-34.132813-34.136718-34.132813-18.851563 0-34.132813 15.28125-34.132813 34.132813 0 18.851562 15.28125 34.132812 34.132813 34.132812zm0-51.199218c9.425781 0 17.066406 7.640624 17.066406 17.066406 0 9.425781-7.640625 17.066406-17.066406 17.066406-9.425782 0-17.066406-7.640625-17.066406-17.066406 0-9.425782 7.640624-17.066406 17.066406-17.066406zm0 0"/><path d="m43.792969 435.65625c-14.136719 0-25.597657 11.464844-25.597657 25.601562 0 14.136719 11.460938 25.601563 25.597657 25.601563 14.140625 0 25.601562-11.464844 25.601562-25.601563 0-14.136718-11.460937-25.601562-25.601562-25.601562zm0 34.132812c-4.710938 0-8.53125-3.820312-8.53125-8.53125 0-4.714843 3.820312-8.535156 8.53125-8.535156 4.714843 0 8.535156 3.820313 8.535156 8.535156 0 4.710938-3.820313 8.53125-8.535156 8.53125zm0 0"/></g></svg>