<svg height="419pt" viewBox="-3 0 419 419.293" width="419pt" xmlns="http://www.w3.org/2000/svg"><path d="m.148438 156.292969h71v263h-71zm0 0"/><path d="m387.199219 155.976562-140.351563-.148437c-1.890625-.003906-3.699218-.769531-5.015625-2.125-1.316406-1.351563-2.027343-3.183594-1.976562-5.070313l2.761719-99.613281c-.59375-24.121093-18.660157-44.21875-42.582032-47.371093-.066406-.007813-.132812-.019532-.199218-.027344l-10.421876-1.621094-6.824218 89.347656c-1.125 14.585938-6.15625 28.601563-14.574219 40.566406-5.414063 7.796876-12.203125 14.546876-20.027344 19.917969-2.6875 1.824219-5.703125 3.753907-8.792969 5.800781-19.433593 12.839844-46.046874 30.359376-54.046874 48.277344v190.402344c87 .082031 206.089843.167969 266.101562.027344 14.621094-.035156 26.898438-10.960938 26.898438-24.359375v-.699219c0-13.429688-12.316407-23.988281-26.976563-23.988281h-20.125c-3.867187 0-7-3.132813-7-7 0-3.867188 3.132813-7 7-7h37.160156c14.660157 0 26.589844-11.03125 26.589844-24.464844 0-13.5-11.929687-24.535156-26.589844-24.535156h-39.386719c-3.867187 0-7-3.132813-7-7 0-3.867188 3.132813-7 7-7h50.199219c14.660157 0 26.128907-11.082031 26.128907-24.515625v-.738282c0-13.09375-10.871094-23.746093-25.023438-24.746093h-56.539062c-3.867188 0-7-3.132813-7-7 0-3.867188 3.132812-7 7-7h54.898437c.222656.015625.441406.042969.65625.082031v.101562c.402344-.097656.808594-.160156 1.21875-.1875h6.816406c14.664063 0 26.589844-10.722656 26.589844-24.152343 0-13.433594-11.914063-24.152344-26.566406-24.160157zm0 0"/></svg>